#Comment line ignore any data following # character 
#Hierarchical Translation and Rotation (.htr) file 
[Header]	
#Header keywords are followed by a single value 
FileType HTR		#Single word string
DataType HTRS		#Translation followed by rotation and scale data
FileVersion 1		#integer
NumSegments 84		#integer
NumFrames 2		#integer
DataFrameRate 30		#integer, data frame rate in this file
EulerRotationOrder ZYX
CalibrationUnits mm
RotationUnits Degrees
GlobalAxisofGravity Y
BoneLengthAxis Y
ScaleFactor 1.00
[SegmentNames&Hierarchy]
#CHILD	PARENT
MASTER GLOBAL
root MASTER
chest root
L_mid_tent01 root
R_mid_tent01 root
spine01 root
Bip01_Neck chest
L_humerus chest
R_humerus chest
weapon_bone chest
Bip01_Head Bip01_Neck
eye_left_bone Bip01_Head
eye_right_bone Bip01_Head
L_forearm L_humerus
L_front_hand L_forearm
L_weapon_bone L_forearm
L_front_hand01_01 L_front_hand
L_front_hand02_01 L_front_hand
L_front_hand03_01 L_front_hand
L_front_hand01_02 L_front_hand01_01
L_front_hand02_02 L_front_hand02_01
L_front_hand03_02 L_front_hand03_01
R_forearm R_humerus
R_front_hand R_forearm
R_weapon_bone R_forearm
R_front_hand01_01 R_front_hand
R_front_hand02_01 R_front_hand
R_front_hand03_01 R_front_hand
R_front_hand01_02 R_front_hand01_01
R_front_hand02_02 R_front_hand02_01
R_front_hand03_02 R_front_hand03_01
null_rope01_connect L_mid_tent01
Rope1_Seg01 null_rope01_connect
Rope1_Seg02 Rope1_Seg01
Rope1_Seg03 Rope1_Seg02
Rope1_Seg04 Rope1_Seg03
Rope1_Seg05 Rope1_Seg04
Rope1_Seg06 Rope1_Seg05
Rope1_Seg07 Rope1_Seg06
Rope1_Seg09 Rope1_Seg07
L_mid_hand01 Rope1_Seg09
L_mid_hand02 Rope1_Seg09
L_mid_hand03 Rope1_Seg09
null_rope02_connect R_mid_tent01
Rope2_Seg01 null_rope02_connect
Rope2_Seg02 Rope2_Seg01
Rope2_Seg03 Rope2_Seg02
Rope2_Seg04 Rope2_Seg03
Rope2_Seg05 Rope2_Seg04
Rope2_Seg06 Rope2_Seg05
Rope2_Seg07 Rope2_Seg06
Rope2_Seg09 Rope2_Seg07
R_mid_hand01 Rope2_Seg09
R_mid_hand02 Rope2_Seg09
R_mid_hand03 Rope2_Seg09
spine02 spine01
spine03 spine02
pelvis spine03
null_rope03_connect pelvis
null_rope04_connect pelvis
Rope3_Seg01 null_rope03_connect
Rope3_Seg02 Rope3_Seg01
Rope3_Seg03 Rope3_Seg02
Rope3_Seg04 Rope3_Seg03
Rope3_Seg05 Rope3_Seg04
Rope3_Seg06 Rope3_Seg05
Rope3_Seg07 Rope3_Seg06
Rope3_Seg08 Rope3_Seg07
Rope3_Seg09 Rope3_Seg08
R_rear_hand01 Rope3_Seg09
R_rear_hand02 Rope3_Seg09
R_rear_hand03 Rope3_Seg09
Rope4_Seg01 null_rope04_connect
Rope4_Seg02 Rope4_Seg01
Rope4_Seg03 Rope4_Seg02
Rope4_Seg04 Rope4_Seg03
Rope4_Seg05 Rope4_Seg04
Rope4_Seg06 Rope4_Seg05
Rope4_Seg07 Rope4_Seg06
Rope4_Seg08 Rope4_Seg07
Rope4_Seg09 Rope4_Seg08
L_rear_hand01 Rope4_Seg09
L_rear_hand02 Rope4_Seg09
L_rear_hand03 Rope4_Seg09
[BasePosition]
#SegmentName Tx, Ty, Tz, Rx, Ry, Rz, BoneLength
MASTER 0.000000 0.000000 0.000000 -90.000000 0.000000 0.000000 10.000000 
root 0.000000 0.000000 0.000000 0.000000 0.000000 0.000000 10.000000 
chest 0.000000 0.000000 0.000000 0.000000 0.000000 0.000000 10.000000 
L_mid_tent01 0.000000 0.000000 0.000000 0.000000 0.000000 0.000000 10.000000 
R_mid_tent01 0.000000 0.000000 0.000000 0.000000 0.000000 0.000000 10.000000 
spine01 0.000000 0.000000 0.000000 0.000000 0.000000 0.000000 10.000000 
Bip01_Neck 0.000000 0.000000 0.000000 0.000000 0.000000 0.000000 10.000000 
L_humerus 0.000000 0.000000 0.000000 0.000000 0.000000 0.000000 10.000000 
R_humerus 0.000000 0.000000 0.000000 0.000000 0.000000 0.000000 10.000000 
weapon_bone 0.000000 0.000000 0.000000 0.000000 0.000000 0.000000 10.000000 
Bip01_Head 0.000000 0.000000 0.000000 0.000000 0.000000 0.000000 10.000000 
eye_left_bone 0.000000 0.000000 0.000000 0.000000 0.000000 0.000000 10.000000 
eye_right_bone 0.000000 0.000000 0.000000 0.000000 0.000000 0.000000 10.000000 
L_forearm 0.000000 0.000000 0.000000 0.000000 0.000000 0.000000 10.000000 
L_front_hand 0.000000 0.000000 0.000000 0.000000 0.000000 0.000000 10.000000 
L_weapon_bone 0.000000 0.000000 0.000000 0.000000 0.000000 0.000000 10.000000 
L_front_hand01_01 0.000000 0.000000 0.000000 0.000000 0.000000 0.000000 10.000000 
L_front_hand02_01 0.000000 0.000000 0.000000 0.000000 0.000000 0.000000 10.000000 
L_front_hand03_01 0.000000 0.000000 0.000000 0.000000 0.000000 0.000000 10.000000 
L_front_hand01_02 0.000000 0.000000 0.000000 0.000000 0.000000 0.000000 10.000000 
L_front_hand02_02 0.000000 0.000000 0.000000 0.000000 0.000000 0.000000 10.000000 
L_front_hand03_02 0.000000 0.000000 0.000000 0.000000 0.000000 0.000000 10.000000 
R_forearm 0.000000 0.000000 0.000000 0.000000 0.000000 0.000000 10.000000 
R_front_hand 0.000000 0.000000 0.000000 0.000000 0.000000 0.000000 10.000000 
R_weapon_bone 0.000000 0.000000 0.000000 0.000000 0.000000 0.000000 10.000000 
R_front_hand01_01 0.000000 0.000000 0.000000 0.000000 0.000000 0.000000 10.000000 
R_front_hand02_01 0.000000 0.000000 0.000000 0.000000 0.000000 0.000000 10.000000 
R_front_hand03_01 0.000000 0.000000 0.000000 0.000000 0.000000 0.000000 10.000000 
R_front_hand01_02 0.000000 0.000000 0.000000 0.000000 0.000000 0.000000 10.000000 
R_front_hand02_02 0.000000 0.000000 0.000000 0.000000 0.000000 0.000000 10.000000 
R_front_hand03_02 0.000000 0.000000 0.000000 0.000000 0.000000 0.000000 10.000000 
null_rope01_connect 0.000000 0.000000 0.000000 0.000000 0.000000 0.000000 10.000000 
Rope1_Seg01 0.000000 0.000000 0.000000 0.000000 0.000000 0.000000 10.000000 
Rope1_Seg02 0.000000 0.000000 0.000000 0.000000 0.000000 0.000000 10.000000 
Rope1_Seg03 0.000000 0.000000 0.000000 0.000000 0.000000 0.000000 10.000000 
Rope1_Seg04 0.000000 0.000000 0.000000 0.000000 0.000000 0.000000 10.000000 
Rope1_Seg05 0.000000 0.000000 0.000000 0.000000 0.000000 0.000000 10.000000 
Rope1_Seg06 0.000000 0.000000 0.000000 0.000000 0.000000 0.000000 10.000000 
Rope1_Seg07 0.000000 0.000000 0.000000 0.000000 0.000000 0.000000 10.000000 
Rope1_Seg09 0.000000 0.000000 0.000000 0.000000 0.000000 0.000000 10.000000 
L_mid_hand01 0.000000 0.000000 0.000000 0.000000 0.000000 0.000000 10.000000 
L_mid_hand02 0.000000 0.000000 0.000000 0.000000 0.000000 0.000000 10.000000 
L_mid_hand03 0.000000 0.000000 0.000000 0.000000 0.000000 0.000000 10.000000 
null_rope02_connect 0.000000 0.000000 0.000000 0.000000 0.000000 0.000000 10.000000 
Rope2_Seg01 0.000000 0.000000 0.000000 0.000000 0.000000 0.000000 10.000000 
Rope2_Seg02 0.000000 0.000000 0.000000 0.000000 0.000000 0.000000 10.000000 
Rope2_Seg03 0.000000 0.000000 0.000000 0.000000 0.000000 0.000000 10.000000 
Rope2_Seg04 0.000000 0.000000 0.000000 0.000000 0.000000 0.000000 10.000000 
Rope2_Seg05 0.000000 0.000000 0.000000 0.000000 0.000000 0.000000 10.000000 
Rope2_Seg06 0.000000 0.000000 0.000000 0.000000 0.000000 0.000000 10.000000 
Rope2_Seg07 0.000000 0.000000 0.000000 0.000000 0.000000 0.000000 10.000000 
Rope2_Seg09 0.000000 0.000000 0.000000 0.000000 0.000000 0.000000 10.000000 
R_mid_hand01 0.000000 0.000000 0.000000 0.000000 0.000000 0.000000 10.000000 
R_mid_hand02 0.000000 0.000000 0.000000 0.000000 0.000000 0.000000 10.000000 
R_mid_hand03 0.000000 0.000000 0.000000 0.000000 0.000000 0.000000 10.000000 
spine02 0.000000 0.000000 0.000000 0.000000 0.000000 0.000000 10.000000 
spine03 0.000000 0.000000 0.000000 0.000000 0.000000 0.000000 10.000000 
pelvis 0.000000 0.000000 0.000000 0.000000 0.000000 0.000000 10.000000 
null_rope03_connect 0.000000 0.000000 0.000000 0.000000 0.000000 0.000000 10.000000 
null_rope04_connect 0.000000 0.000000 0.000000 0.000000 0.000000 0.000000 10.000000 
Rope3_Seg01 0.000000 0.000000 0.000000 0.000000 0.000000 0.000000 10.000000 
Rope3_Seg02 0.000000 0.000000 0.000000 0.000000 0.000000 0.000000 10.000000 
Rope3_Seg03 0.000000 0.000000 0.000000 0.000000 0.000000 0.000000 10.000000 
Rope3_Seg04 0.000000 0.000000 0.000000 0.000000 0.000000 0.000000 10.000000 
Rope3_Seg05 0.000000 0.000000 0.000000 0.000000 0.000000 0.000000 10.000000 
Rope3_Seg06 0.000000 0.000000 0.000000 0.000000 0.000000 0.000000 10.000000 
Rope3_Seg07 0.000000 0.000000 0.000000 0.000000 0.000000 0.000000 10.000000 
Rope3_Seg08 0.000000 0.000000 0.000000 0.000000 0.000000 0.000000 10.000000 
Rope3_Seg09 0.000000 0.000000 0.000000 0.000000 0.000000 0.000000 10.000000 
R_rear_hand01 0.000000 0.000000 0.000000 0.000000 0.000000 0.000000 10.000000 
R_rear_hand02 0.000000 0.000000 0.000000 0.000000 0.000000 0.000000 10.000000 
R_rear_hand03 0.000000 0.000000 0.000000 0.000000 0.000000 0.000000 10.000000 
Rope4_Seg01 0.000000 0.000000 0.000000 0.000000 0.000000 0.000000 10.000000 
Rope4_Seg02 0.000000 0.000000 0.000000 0.000000 0.000000 0.000000 10.000000 
Rope4_Seg03 0.000000 0.000000 0.000000 0.000000 0.000000 0.000000 10.000000 
Rope4_Seg04 0.000000 0.000000 0.000000 0.000000 0.000000 0.000000 10.000000 
Rope4_Seg05 0.000000 0.000000 0.000000 0.000000 0.000000 0.000000 10.000000 
Rope4_Seg06 0.000000 0.000000 0.000000 0.000000 0.000000 0.000000 10.000000 
Rope4_Seg07 0.000000 0.000000 0.000000 0.000000 0.000000 0.000000 10.000000 
Rope4_Seg08 0.000000 0.000000 0.000000 0.000000 0.000000 0.000000 10.000000 
Rope4_Seg09 0.000000 0.000000 0.000000 0.000000 0.000000 0.000000 10.000000 
L_rear_hand01 0.000000 0.000000 0.000000 0.000000 0.000000 0.000000 10.000000 
L_rear_hand02 0.000000 0.000000 0.000000 0.000000 0.000000 0.000000 10.000000 
L_rear_hand03 0.000000 0.000000 0.000000 0.000000 0.000000 0.000000 10.000000 
#Beginning of Data. Separated by tabs
#Fr	Tx	Ty	Tz	Rx	Ry	Rz	SF
[MASTER]
33 -0.001647 11461.891602 -158.440018 0.001660 0.001660 0.001660 11462.986328
34 -0.001664 11550.417969 -166.689011 0.001660 0.001660 0.001660 11551.621094
[root]
33 -16.502293 -62.822224 1500.000000 -91.629707 -27.676071 -90.148109 1501.405640
34 -16.502293 -59.720333 1497.476685 -91.628334 -26.986946 -90.000130 1498.757935
[chest]
33 -84.512650 -34.090519 0.000000 -1.256334 1.712321 -168.763840 91.129311
34 -84.512650 -34.090519 0.000000 -1.321782 1.608882 -169.578583 91.129311
[L_mid_tent01]
33 27.299641 22.179455 -249.918701 16.022230 63.026802 58.874947 252.381760
34 27.299658 22.179466 -249.918701 12.459023 61.454048 54.164280 252.381760
[R_mid_tent01]
33 23.228794 24.509907 226.238495 172.374176 -69.058746 50.433655 228.744751
34 23.228794 24.509907 226.238495 173.815155 -67.332474 48.258343 228.744751
[spine01]
33 -0.361383 -0.195265 0.000000 0.001983 0.001256 25.272581 0.410763
34 -0.361383 -0.195265 0.000000 0.001978 0.001264 24.824894 0.410763
[Bip01_Neck]
33 165.484543 71.581718 0.000119 176.643677 -1.657967 43.431911 180.302734
34 165.484543 71.581718 0.000119 176.643677 -1.657967 43.431911 180.302734
[L_humerus]
33 -13.983130 -135.272980 -120.471481 -5.893061 67.730736 84.112701 181.680161
34 -13.983130 -135.272980 -120.471481 -5.813163 67.960175 84.200859 181.680161
[R_humerus]
33 -13.983309 -135.273102 125.287651 27.279989 -68.700386 68.386795 184.909012
34 -13.983309 -135.273102 125.287651 27.400555 -68.953468 68.261612 184.909012
[weapon_bone]
33 235.964890 -300.705902 0.000000 0.000000 -89.951546 -128.212341 382.234833
34 235.964890 -300.705902 0.000000 0.000000 -89.951546 -128.212341 382.234833
[Bip01_Head]
33 213.386215 185.878906 9.668089 5.083125 4.476150 -43.868359 283.157410
34 213.395508 185.852173 10.012013 5.061032 4.166913 -43.874245 283.158813
[eye_left_bone]
33 -24.626970 125.451866 -64.772606 0.000000 -90.000000 -99.840431 143.318359
34 -24.626970 125.451866 -64.772606 0.000000 -90.000000 -99.840431 143.318359
[eye_right_bone]
33 -24.626970 125.451866 64.327362 0.000000 -89.965736 80.156380 143.117676
34 -24.626970 125.451866 64.327362 0.000000 -89.965736 80.156380 143.117676
[L_forearm]
33 322.776093 0.000000 -0.000119 0.000404 -0.002312 -109.811287 322.776093
34 322.776093 0.000000 -0.000119 0.000402 -0.002313 -109.730667 322.776093
[L_front_hand]
33 241.149185 -0.042021 -3.300071 -178.667953 -1.835447 -27.422350 241.171753
34 241.149185 -0.042021 -3.300071 -178.667953 -1.835447 -27.422350 241.171753
[L_weapon_bone]
33 156.183838 0.000000 0.000000 0.000014 0.000007 0.000001 156.183838
34 156.183838 0.000000 0.000000 0.000014 0.000007 0.000001 156.183838
[L_front_hand01_01]
33 86.095154 20.947098 -0.655860 -0.366594 -0.477154 75.385582 88.609184
34 86.095154 20.947098 -0.655860 -0.366594 -0.477154 75.385574 88.609184
[L_front_hand02_01]
33 86.935165 -11.437475 24.513514 154.399811 -59.883835 -61.369587 91.046425
34 86.935165 -11.437475 24.513514 154.399796 -59.883835 -61.369587 91.046425
[L_front_hand03_01]
33 86.637497 -14.123976 -20.424902 -153.913864 58.118130 -62.702885 90.126129
34 86.637497 -14.123976 -20.424902 -153.913849 58.118122 -62.702866 90.126129
[L_front_hand01_02]
33 71.020905 -0.000179 0.000030 0.000330 -0.002324 -106.153122 71.020905
34 71.020905 -0.000179 0.000030 0.000331 -0.002324 -106.206635 71.020905
[L_front_hand02_02]
33 71.020927 -0.000119 0.000060 0.000330 -0.002324 -106.153122 71.020927
34 71.020927 -0.000119 0.000060 0.000331 -0.002324 -106.206635 71.020927
[L_front_hand03_02]
33 71.020905 -0.000060 0.000060 0.000330 -0.002324 -106.153122 71.020905
34 71.020905 -0.000060 0.000060 0.000331 -0.002324 -106.206635 71.020905
[R_forearm]
33 322.776428 -0.000060 0.000030 0.201875 0.065860 -108.461502 322.776428
34 322.776428 -0.000060 0.000030 0.201923 0.065714 -108.378181 322.776428
[R_front_hand]
33 238.847015 -0.006795 2.210259 -2.635298 -10.645461 -26.312506 238.857239
34 238.847015 -0.006795 2.210259 -2.635298 -10.645461 -26.312506 238.857239
[R_weapon_bone]
33 155.664093 0.002503 -0.000030 0.003487 0.001180 -90.988930 155.664078
34 155.664093 0.002503 -0.000030 0.003487 0.001180 -90.988930 155.664078
[R_front_hand01_01]
33 87.624611 14.231146 22.918642 -154.633484 -59.950607 61.746037 91.683487
34 87.624611 14.231146 22.918642 -154.633514 -59.950626 61.746063 91.683487
[R_front_hand02_01]
33 89.356956 14.367283 -19.491137 154.602661 58.302849 63.744389 92.579636
34 89.356956 14.367283 -19.491137 154.602676 58.302864 63.744389 92.579636
[R_front_hand03_01]
33 87.286232 -22.307278 -0.143439 0.162155 -0.423168 -75.767906 90.091743
34 87.286232 -22.307278 -0.143439 0.162155 -0.423168 -75.767921 90.091743
[R_front_hand01_02]
33 71.020905 0.000060 0.000119 0.002323 -0.000334 106.381714 71.020905
34 71.020905 0.000060 0.000119 0.002323 -0.000334 106.381714 71.020905
[R_front_hand02_02]
33 71.020844 -0.000030 -0.000119 0.002323 -0.000334 106.381714 71.020836
34 71.020844 -0.000030 -0.000119 0.002323 -0.000334 106.381714 71.020836
[R_front_hand03_02]
33 71.020905 0.000000 0.000030 0.002323 -0.000334 106.381714 71.020905
34 71.020905 0.000000 0.000030 0.002323 -0.000334 106.381714 71.020905
[null_rope01_connect]
33 328.732483 0.000000 -0.000238 -103.898994 -24.631804 173.315155 328.732483
34 328.732483 0.000000 -0.000238 -103.704704 -26.762264 174.704147 328.732483
[Rope1_Seg01]
33 -0.000009 -0.000018 0.000036 22.433495 15.237226 -115.154106 0.000042
34 -0.000008 -0.000016 0.000033 16.651333 10.362969 -110.503693 0.000037
[Rope1_Seg02]
33 139.999863 -0.000179 0.000000 39.939175 -0.107225 -6.713296 139.999863
34 139.999863 -0.000179 0.000000 19.595100 0.733591 -6.937820 139.999863
[Rope1_Seg03]
33 139.999924 0.000060 -0.000060 59.806667 -5.980639 -7.426430 139.999924
34 139.999924 0.000060 -0.000060 57.246441 -1.963745 -10.428504 139.999924
[Rope1_Seg04]
33 139.999924 -0.000060 -0.000119 21.715132 -12.626301 1.593174 139.999924
34 139.999924 -0.000060 -0.000119 40.639492 -12.268453 -4.943251 139.999924
[Rope1_Seg05]
33 139.999832 0.000119 -0.000060 -5.201053 -2.230397 6.533686 139.999832
34 139.999832 0.000119 -0.000060 -14.954602 2.884431 5.823232 139.999832
[Rope1_Seg06]
33 139.999954 0.000119 -0.000060 -6.207978 -2.344268 9.134504 139.999954
34 139.999954 0.000119 -0.000060 -12.489340 1.391015 8.215849 139.999954
[Rope1_Seg07]
33 139.999985 0.000060 0.000000 -2.324070 -4.065137 7.523975 139.999985
34 139.999985 0.000060 0.000000 -4.474760 -1.197620 5.574485 139.999985
[Rope1_Seg09]
33 121.602913 0.000119 -0.000089 -89.793175 -1.359789 0.847147 121.602913
34 121.602913 0.000119 -0.000089 -89.793175 -1.359789 0.847147 121.602913
[L_mid_hand01]
33 103.859421 1.038730 8.195221 130.544373 -67.584534 -38.866943 104.187431
34 103.859421 1.038730 8.195221 130.544373 -67.584534 -38.866943 104.187431
[L_mid_hand02]
33 105.572853 -4.139662 -10.864139 -168.923172 43.409309 -73.498886 106.211075
34 105.572853 -4.139662 -10.864139 -168.923172 43.409309 -73.498886 106.211075
[L_mid_hand03]
33 104.641464 17.579376 -3.913581 -6.012627 17.808174 74.893669 106.179977
34 104.641464 17.579376 -3.913581 -6.012627 17.808174 74.893669 106.179977
[null_rope02_connect]
33 328.732849 0.000179 -0.000119 -104.137794 21.984138 4.167316 328.732849
34 328.732849 0.000179 -0.000119 -104.051872 23.605549 3.908772 328.732849
[Rope2_Seg01]
33 0.000067 0.000036 0.000000 90.467140 9.950047 -66.392464 0.000076
34 0.000068 0.000033 0.000000 89.118469 7.952838 -69.845573 0.000076
[Rope2_Seg02]
33 139.999741 -0.000060 -0.000119 -5.274096 6.746484 -1.132694 139.999756
34 139.999741 -0.000060 -0.000119 -5.902093 7.023530 -0.479920 139.999756
[Rope2_Seg03]
33 140.000107 0.000030 0.000000 -15.554472 8.195506 -0.398909 140.000107
34 140.000107 0.000030 0.000000 -15.485214 8.941697 0.490691 140.000107
[Rope2_Seg04]
33 139.999802 0.000000 -0.000060 -59.550236 9.273791 2.449084 139.999802
34 139.999802 0.000000 -0.000060 -42.883499 9.647249 3.372741 139.999802
[Rope2_Seg05]
33 139.999985 -0.000060 0.000119 -39.041874 3.298990 3.184454 139.999985
34 139.999985 -0.000060 0.000119 -1.038512 1.500566 -0.511565 139.999985
[Rope2_Seg06]
33 139.999893 -0.000030 -0.000119 -30.446566 2.116233 2.927524 139.999893
34 139.999893 -0.000030 -0.000119 14.881666 0.840343 -2.372705 139.999893
[Rope2_Seg07]
33 139.999893 0.000060 -0.000060 -17.172741 -0.945158 3.571148 139.999893
34 139.999893 0.000060 -0.000060 4.198330 1.040406 -0.930262 139.999893
[Rope2_Seg09]
33 121.338966 0.000089 -0.000060 33.793236 -1.359788 -0.847141 121.338966
34 121.338966 0.000089 -0.000060 33.793236 -1.359788 -0.847141 121.338966
[R_mid_hand01]
33 104.680779 11.144459 -10.335981 -16.212063 45.237247 70.462852 105.778534
34 104.680779 11.144459 -10.335981 -16.212063 45.237247 70.462852 105.778534
[R_mid_hand02]
33 104.070427 2.443552 8.231699 49.067368 -67.749771 39.286453 104.424065
34 104.070427 2.443552 8.231699 49.067368 -67.749771 39.286453 104.424065
[R_mid_hand03]
33 106.028137 -11.221827 -5.996406 -177.101105 15.551026 -76.585571 106.788818
34 106.028137 -11.221827 -5.996406 -177.101105 15.551026 -76.585571 106.788818
[spine02]
33 129.756927 0.001550 0.000119 0.396482 -4.041037 -13.482597 129.756927
34 129.756927 0.001550 0.000119 0.389092 -4.041821 -13.366072 129.756927
[spine03]
33 78.614395 0.081598 -4.898994 1.919261 3.820472 16.827066 78.766937
34 78.614403 0.081602 -4.898993 1.913843 3.823783 16.755243 78.766945
[pelvis]
33 169.435242 0.051022 0.000000 -0.061593 -0.179843 14.805834 169.435257
34 169.435242 0.051022 0.000000 -0.061343 -0.179928 14.646226 169.435257
[null_rope03_connect]
33 -1.257226 -2.466202 137.391083 -119.108955 -89.348083 -166.606491 137.418976
34 -1.257226 -2.466202 137.391083 0.000000 -89.466248 74.133125 137.418976
[null_rope04_connect]
33 -1.259640 -2.480268 -137.844437 -119.108955 -89.348083 -166.606491 137.872513
34 -1.259640 -2.480268 -137.844437 0.000000 -89.466248 74.133125 137.872513
[Rope3_Seg01]
33 -0.000031 0.000000 -0.000116 -125.725723 17.372288 -60.081657 0.000120
34 -0.000031 0.000000 -0.000120 -126.910255 18.283842 -63.743732 0.000124
[Rope3_Seg02]
33 139.999924 -0.000119 0.000060 2.379490 -11.167460 1.911334 139.999924
34 139.999924 -0.000119 0.000060 1.609583 -10.479146 1.368997 139.999924
[Rope3_Seg03]
33 139.999924 -0.000119 0.000119 4.007509 -13.871645 3.462980 139.999924
34 139.999924 -0.000119 0.000119 3.253875 -14.075788 2.691046 139.999924
[Rope3_Seg04]
33 139.999924 0.000119 0.000000 5.052936 -13.818990 3.992847 139.999924
34 139.999924 0.000119 0.000000 3.997350 -12.621919 2.581885 139.999924
[Rope3_Seg05]
33 139.999924 -0.000238 0.000060 2.547742 -5.930733 0.374896 139.999924
34 139.999924 -0.000238 0.000060 0.589318 -2.068962 -1.314919 139.999924
[Rope3_Seg06]
33 139.999893 -0.000119 -0.000060 2.182240 -3.726542 0.663134 139.999893
34 139.999893 -0.000119 -0.000060 1.204903 -2.245563 -0.313834 139.999893
[Rope3_Seg07]
33 139.999771 0.000060 -0.000119 1.919061 -2.716326 0.718106 139.999771
34 139.999771 0.000060 -0.000119 1.244306 -1.862289 -0.068043 139.999771
[Rope3_Seg08]
33 139.999985 -0.000060 0.000000 1.458287 -1.686557 0.509477 139.999985
34 139.999985 -0.000060 0.000000 0.926668 -0.947812 -0.015901 139.999985
[Rope3_Seg09]
33 90.185997 -0.000179 -0.000060 89.793228 -1.359877 -0.847183 90.185997
34 90.185997 -0.000179 -0.000060 89.793228 -1.359877 -0.847183 90.185997
[R_rear_hand01]
33 103.366196 -6.073594 -10.757982 -177.714203 24.565960 -73.910950 104.101845
34 103.366196 -6.073594 -10.757982 -177.714203 24.565960 -73.910950 104.101845
[R_rear_hand02]
33 100.509819 12.039542 -7.992327 -12.874829 36.868488 72.167213 101.543350
34 100.509819 12.039542 -7.992327 -12.874829 36.868488 72.167213 101.543350
[R_rear_hand03]
33 101.539970 5.215704 5.435467 71.484581 -71.816628 21.513813 101.819031
34 101.539970 5.215704 5.435467 71.484581 -71.816628 21.513813 101.819031
[Rope4_Seg01]
33 0.000010 0.000038 -0.000114 51.284695 29.964067 -101.790169 0.000121
34 0.000010 0.000038 -0.000114 52.358936 30.053747 -99.527138 0.000121
[Rope4_Seg02]
33 139.999985 0.000060 0.000119 0.808711 -3.541984 -7.961594 139.999985
34 139.999985 0.000060 0.000119 0.879021 -3.211062 -6.889630 139.999985
[Rope4_Seg03]
33 139.999924 0.000000 -0.000238 0.101561 -5.290346 -13.107033 139.999924
34 139.999924 0.000000 -0.000238 0.525220 -4.693747 -11.761702 139.999924
[Rope4_Seg04]
33 139.999985 0.000000 0.000119 -3.160695 -8.366701 -20.935818 139.999985
34 139.999985 0.000000 0.000119 -1.896388 -8.319153 -20.307283 139.999985
[Rope4_Seg05]
33 139.999802 -0.000060 -0.000119 0.336066 -7.242073 -3.246076 139.999802
34 139.999802 -0.000060 -0.000119 2.171639 -10.368658 -0.105924 139.999802
[Rope4_Seg06]
33 139.999924 0.000000 0.000060 0.287293 -3.141357 -1.213419 139.999924
34 139.999924 0.000000 0.000060 1.375784 -4.418383 0.176299 139.999924
[Rope4_Seg07]
33 139.999802 0.000000 0.000000 -0.187994 -1.919766 -1.375253 139.999802
34 139.999802 0.000000 0.000000 0.631050 -2.661772 -0.473067 139.999802
[Rope4_Seg08]
33 139.999924 0.000000 0.000119 -1.667015 -1.133081 -0.817807 139.999924
34 139.999924 0.000000 0.000119 -1.132401 -1.573767 -0.259773 139.999924
[Rope4_Seg09]
33 90.185791 0.000060 0.000060 -135.617828 2.228885 0.850567 90.185791
34 90.185791 0.000060 0.000060 -135.617828 2.228885 0.850567 90.185791
[L_rear_hand01]
33 101.696655 -8.392275 -7.654577 -12.874829 -36.868488 107.832764 102.329041
34 101.696655 -8.392275 -7.654577 -12.874829 -36.868488 107.832764 102.329041
[L_rear_hand02]
33 102.726799 -1.568258 5.773216 71.484581 71.816628 158.486160 102.900848
34 102.726799 -1.568258 5.773216 71.484581 71.816628 158.486160 102.900848
[L_rear_hand03]
33 104.552910 9.721220 -10.420293 -177.714203 -24.565960 -106.089035 105.519653
34 104.552910 9.721220 -10.420293 -177.714203 -24.565960 -106.089035 105.519653
